<?xml version="1.0" standalone="no"?><!DOCTYPE svg PUBLIC "-//W3C//DTD SVG 1.1//EN" "http://www.w3.org/Graphics/SVG/1.1/DTD/svg11.dtd"><svg t="1729213633077" class="icon" viewBox="0 0 1285 1024" version="1.1" xmlns="http://www.w3.org/2000/svg" p-id="18491" xmlns:xlink="http://www.w3.org/1999/xlink" width="250.9765625" height="200"><path d="M715.272 840.131l42.54 42.541H173.255a56.761 56.761 0 0 1-56.762-56.721V173.254a56.761 56.761 0 0 1 56.762-56.762h794.58a56.761 56.761 0 0 1 56.762 56.762v414.314l-42.581-42.46V173.254a14.18 14.18 0 0 0-14.18-14.18H173.253a14.18 14.18 0 0 0-14.18 14.18V825.95a14.18 14.18 0 0 0 14.18 14.18h542.018z" fill="#0a66c2" p-id="18492"></path><path d="M744.273 628.307l-80.115 80.115a56.761 56.761 0 0 0 0 80.115l82.88 82.879H178.781a28.36 28.36 0 0 1-28.361-28.36V569.782l158.027-158.067a56.761 56.761 0 0 1 80.115 0l238.222 238.222L748.92 527.803a28.4 28.4 0 0 1 40.739 0.64l5.968 6.37a28.36 28.36 0 0 1 0 38.936l-51.434 54.278zM641.526 329.318a70.942 70.942 0 1 0 70.942-70.942 70.942 70.942 0 0 0-70.982 70.942z" fill="#0a66c2" p-id="18493"></path><path d="M924.853 548.072l130.427 130.427a28.4 28.4 0 0 1 0 40.058L874.7 899.136a28.4 28.4 0 0 1-40.057 0L704.216 768.709a28.36 28.36 0 0 1 0-40.058l180.58-180.62a28.36 28.36 0 0 1 40.057 0z m-18.547 56.4a14.18 14.18 0 0 0-20.029 0l-125.7 125.701a14.18 14.18 0 0 0 0 20.029l92.573 92.573a14.18 14.18 0 0 0 20.029 0l125.7-125.7a14.18 14.18 0 0 0 0-20.03l-92.573-92.572z" fill="#0a66c2" p-id="18494"></path><path d="M996.996 719.157L872.818 842.815a14.18 14.18 0 0 1-20.029 0l-93.053-93.094 237.1-30.564z m30.724 104.47h-0.24l1.242-2.163a40.298 40.298 0 0 1 2.523-4.446l35.13-62.01 34.85 59.847a42.581 42.581 0 1 1-73.465 8.812z" fill="#0a66c2" p-id="18495"></path></svg>